# xmcd
#
# Track frame offsets: 
#        150
#        25780
#        49862
#        67742
#        86187
#        98177
#        110390
#        125587
#        140927
#        155347
#        167780
#        180332
#        198247
#        210637
#        225160
#        238540
#        256480
#
# Disc length: 3573 seconds
#
# Revision: 1
# Processed by: cddbd v1.5.2PL0 Copyright (c) Steve Scherf et al.
# Submitted via: ExactAudioCopy v0.99pb4
#
DISCID=e10df311
DTITLE=Various Artist - Windy City Blues
DYEAR=2004
DGENRE=Blues
TTITLE0=Albert King With The Willie Dixon Band - The Lovin'est Woman I
TTITLE0=n Town
TTITLE1=Albert King With The Willie Dixon Band - Pit It All In There
TTITLE2=Albert King With The Willie Dixon Band - Need More Mamma
TTITLE3=Albert King With The Willie Dixon Band - Love Me To Death
TTITLE4=Otis Spann - Dust My Broom
TTITLE5=Otis Spann - Must Have Been The Devil
TTITLE6=Willie Dixon - Move Me
TTITLE7=Willie Dixon - That's My Baby
TTITLE8=Billy Boy Arnold - Two Drinks Of Wine
TTITLE9=Billy Boy Arnold - Playing With The Blues
TTITLE10=Billy Boy Arnold - Billy Boy's Blues
TTITLE11=Sunnyland Slim - The Devil Is A Busy Man
TTITLE12=Sunnyland Slim - Every Time I Get To Drinking (Take 3)
TTITLE13=Sunnyland Slim - Tired Of You Clowning
TTITLE14=Homesick James - Gotta Move (Alternate)
TTITLE15=Homesick James - The Cloud Is Crying (Alternate)
TTITLE16=Homesick James - Homesick's Shuffle (Alternate)
EXTD=Recorded in Chigago between 1959 and 1970 (#7, 8, 12-14 recorded 
EXTD=in Englewood Cliffs, NJ]\nLabel: Fantasy Inc. (Stax Records]\nSCD
EXTD=8612-2\nRemastered by Joe Tarantino (Fantasy Studios, Berkeley 2
EXTD=004)
EXTT0=
EXTT1=
EXTT2=
EXTT3=
EXTT4=
EXTT5=
EXTT6=
EXTT7=
EXTT8=
EXTT9=
EXTT10=
EXTT11=
EXTT12=
EXTT13=
EXTT14=
EXTT15=
EXTT16=
PLAYORDER=
